<?xml version="1.0" standalone="no"?>
<!DOCTYPE svg PUBLIC "-//W3C//DTD SVG 20010904//EN"
 "http://www.w3.org/TR/2001/REC-SVG-20010904/DTD/svg10.dtd">
<svg version="1.0" xmlns="http://www.w3.org/2000/svg"
 width="540.000000pt" height="184.000000pt" viewBox="0 0 540.000000 184.000000"
 preserveAspectRatio="xMidYMid meet">

<g transform="translate(0.000000,184.000000) scale(0.100000,-0.100000)"
fill="#000000" stroke="none">
<path d="M2222 1713 l3 -68 130 -3 c71 -1 134 -7 140 -13 6 -6 12 -193 15
-517 l5 -507 27 -50 c54 -102 125 -140 268 -139 103 0 207 24 217 50 3 8 -3
38 -14 67 -16 46 -22 52 -43 48 -14 -2 -66 -4 -117 -5 -83 -1 -94 1 -117 23
-57 54 -56 41 -56 635 l0 546 -230 0 -231 0 3 -67z"/>
<path d="M5200 1473 c-86 -33 -194 -53 -286 -53 -171 0 -292 -38 -369 -114
-63 -63 -79 -106 -83 -217 -3 -87 -1 -101 22 -146 14 -28 47 -69 73 -91 l47
-41 -22 -28 c-61 -77 -77 -123 -63 -186 14 -58 38 -87 97 -114 49 -22 73 -26
232 -32 137 -6 184 -11 209 -24 89 -47 91 -162 4 -206 -78 -40 -242 -53 -351
-30 -65 14 -115 56 -124 104 l-7 35 -76 0 -76 0 6 -66 c4 -53 10 -73 34 -102
67 -83 142 -111 323 -119 254 -11 424 52 493 182 37 70 24 206 -25 265 -28 34
-86 69 -145 89 -51 17 -88 21 -195 21 -143 0 -202 9 -226 34 -22 21 -20 80 2
105 17 18 27 20 110 14 244 -16 401 95 414 294 8 124 -23 186 -128 254 -24 16
-23 17 65 24 129 10 165 20 164 48 -1 33 -32 120 -44 123 -5 1 -39 -9 -75 -23z
m-260 -215 c68 -35 84 -65 88 -161 3 -70 0 -89 -20 -126 -37 -71 -65 -86 -162
-86 -71 0 -87 3 -119 25 -51 35 -77 91 -77 169 0 75 20 122 66 159 41 33 63
40 129 41 34 1 65 -6 95 -21z"/>
<path d="M382 1410 c-73 -10 -164 -49 -206 -88 -40 -38 -76 -118 -76 -172 0
-76 18 -121 69 -170 51 -50 116 -80 276 -129 138 -43 177 -66 193 -119 12 -37
12 -46 -5 -79 -34 -68 -91 -93 -218 -93 -77 0 -180 31 -234 69 -36 26 -42 23
-96 -37 l-38 -43 22 -23 c36 -39 139 -83 235 -102 154 -31 336 3 438 80 65 50
92 112 91 211 -1 49 -7 94 -17 116 -31 73 -119 123 -321 184 -140 42 -175 62
-201 110 -18 34 -18 36 -1 68 26 48 69 69 148 75 82 6 168 -10 244 -44 31 -13
61 -21 67 -18 11 7 68 94 68 105 0 13 -73 50 -144 74 -82 26 -203 37 -294 25z"/>
<path d="M1501 1410 c-71 -11 -173 -64 -221 -116 -85 -93 -130 -224 -130 -384
0 -169 46 -296 138 -382 61 -58 115 -86 201 -104 123 -26 241 -10 358 48 88
44 94 54 56 109 -34 51 -42 52 -130 15 -134 -57 -272 -42 -348 38 -50 52 -77
106 -83 169 l-5 47 317 0 316 0 0 108 c0 116 -12 176 -54 264 -46 98 -148 168
-273 188 -64 11 -65 11 -142 0z m189 -174 c50 -33 86 -103 96 -189 l7 -57
-228 0 -227 0 7 43 c27 159 111 241 241 234 47 -2 71 -9 104 -31z"/>
<path d="M3689 1409 c-167 -24 -290 -146 -334 -331 -19 -82 -19 -255 0 -337
43 -181 158 -293 334 -323 183 -31 364 57 435 214 42 93 48 120 53 250 7 154
-5 226 -54 325 -57 117 -146 180 -283 202 -72 12 -72 12 -151 0z m171 -169
c88 -45 125 -154 118 -355 -4 -103 -9 -142 -27 -187 -38 -97 -121 -148 -220
-134 -129 18 -191 130 -191 346 1 241 70 350 223 350 38 0 71 -7 97 -20z"/>
</g>
</svg>
